<svg xmlns="http://www.w3.org/2000/svg" viewBox="69 1.384 62.447 48.032">
  <defs>
    <style>
      .cls-1 {
        fill: #37404d;
      }

      .cls-2 {
        fill: rgba(85,179,229,0.86);
      }

      .cls-3 {
        fill: #f7f8f9;
      }
    </style>
  </defs>
  <g id="cameracamera" transform="translate(69 1.377)">
    <g id="Camera" transform="translate(0 0.007)">
      <path id="Path_26" data-name="Path 26" class="cls-1" d="M56.406,48.039H6.04A6.047,6.047,0,0,1,0,42V13.46A6.047,6.047,0,0,1,6.04,7.424h10.1c1.842-3.229,3.144-5.387,3.292-5.633a3.535,3.535,0,0,1,1.4-1.368A3.344,3.344,0,0,1,22.095.066c1.2-.1,4.832-.052,7.235-.022.821.01,1.47.018,1.83.019.381,0,1.113-.009,1.955-.019,2.516-.03,5.965-.072,7.15.022a3.358,3.358,0,0,1,1.269.355,3.545,3.545,0,0,1,1.4,1.367c.147.242,1.443,2.376,3.309,5.635H56.4a6.108,6.108,0,0,1,4.271,1.769,6,6,0,0,1,1.776,4.267V27.668a.952.952,0,1,1-1.9,0V13.46a4.109,4.109,0,0,0-1.211-2.919A4.249,4.249,0,0,0,56.413,9.33H45.139l-.274-.48c-2-3.506-3.4-5.817-3.554-6.07a1.68,1.68,0,0,0-.641-.664,1.457,1.457,0,0,0-.556-.152c-1.1-.088-4.635-.044-6.981-.016-.888.01-1.58.017-1.979.019-.371,0-1.026-.009-1.853-.019-2.224-.028-5.946-.074-7.058.015a1.446,1.446,0,0,0-.552.151,1.67,1.67,0,0,0-.635.663c-.155.254-1.568,2.6-3.541,6.07l-.274.482H6.04A4.14,4.14,0,0,0,1.9,13.46V42A4.142,4.142,0,0,0,6.04,46.136H56.406A4.142,4.142,0,0,0,60.543,42V31.1a.952.952,0,0,1,1.9,0V42a6.047,6.047,0,0,1-6.04,6.04Z" transform="translate(0 -0.007)"/>
      <path id="Path_27" data-name="Path 27" class="cls-2" d="M164.687,123.741a14.635,14.635,0,0,0,.254-2.585,14.216,14.216,0,1,0-14.216,14.216,15.389,15.389,0,0,0,4.227-.635A15.214,15.214,0,0,0,162.8,128.5a16.029,16.029,0,0,0,.946-1.631" transform="translate(-119.184 -93.368)"/>
      <path id="Path_28" data-name="Path 28" class="cls-1" d="M142.858,128.656A15.358,15.358,0,1,1,158.216,113.3a15.612,15.612,0,0,1-.272,2.792,1.143,1.143,0,1,1-2.248-.411,13.328,13.328,0,0,0,.234-2.38,13.073,13.073,0,1,0-13.073,13.073,14.3,14.3,0,0,0,3.878-.584,13.762,13.762,0,0,0,7.245-5.775,14.86,14.86,0,0,0,.878-1.515,1.143,1.143,0,0,1,2.042,1.027,17.162,17.162,0,0,1-1.015,1.749,16.014,16.014,0,0,1-8.452,6.69A16.67,16.67,0,0,1,142.858,128.656Z" transform="translate(-111.317 -85.51)"/>
      <path id="Path_29" data-name="Path 29" class="cls-3" d="M174.936,159.335a9.611,9.611,0,1,0-1.75-2.8" transform="translate(-150.587 -125.118)"/>
      <path id="Path_30" data-name="Path 30" class="cls-1" d="M175.569,156.619a10.613,10.613,0,0,1-7.9-3.535.952.952,0,1,1,1.419-1.269,8.659,8.659,0,1,0-1.578-2.526.952.952,0,1,1-1.764.716,10.6,10.6,0,1,1,9.824,6.614Z" transform="translate(-144.029 -118.233)"/>
    </g>
  </g>
</svg>
