<svg xmlns="http://www.w3.org/2000/svg" viewBox="-8.233 949.427 219.707 157.533">
  <defs>
    <style>
      .cls-1 {
        fill: rgba(229,85,85,0.86);
      }

      .cls-2 {
        fill: #f7f8f9;
      }

      .cls-3 {
        fill: #37404d;
      }

      .cls-4 {
        fill: #55b3e5;
      }

      .cls-5 {
        fill: rgba(85,179,229,0.86);
      }
    </style>
  </defs>
  <g id="megaphone_1" transform="matrix(0.956, -0.292, 0.292, 0.956, -8.224, 997.653)">
    <g id="Megaphone" transform="translate(0 -0.031)">
      <g id="_1483981810_megaphone" data-name=" 1483981810 megaphone">
        <path id="Path_8" data-name="Path 8" class="cls-1" d="M90.664,150.034c1.3,4.021-.909,7.276-4.926,7.272H78.462a10.924,10.924,0,0,1-9.622-7.284l-11.734-36.38c-1.3-4.021.925-7.276,4.922-7.272H69.3a10.928,10.928,0,0,1,9.622,7.284Z" transform="translate(-34.215 -64.135)"/>
        <path id="Path_11" data-name="Path 11" class="cls-1" d="M300.084,119.228a7.272,7.272,0,0,1-7.276,7.268h-29.1a7.272,7.272,0,0,1-7.272-7.276h0V104.672a7.272,7.272,0,0,1,7.276-7.272h29.1a7.272,7.272,0,0,1,7.276,7.272h0Z" transform="translate(-155.83 -58.097)"/>
        <path id="Path_42" data-name="Path 42" class="cls-2" d="M52.319,32.182H77.164c36.57.024,49.03-15.179,59.252-24.289a1.707,1.707,0,0,1,2.842,1.27l-.063,91.551v5.8a1.588,1.588,0,0,1-2.632,1.191l-.722-.651c-1-.905-2.02-1.866-3.088-2.858-9.749-9.07-23.205-21.038-55.62-21.038H50.838l8.213,25.464c1.3,4.021-.909,7.276-4.926,7.272h-7.28c-4.013,0-7.994-1.9-9.292-5.914L28.975,83.094H22.564A7.272,7.272,0,0,1,15.3,75.818v-.524h-.524A7.272,7.272,0,0,1,7.5,68.01h0V46.178a7.268,7.268,0,0,1,7.292-7.26h.548A7.272,7.272,0,0,1,22.6,32.17H42.975" transform="translate(-4.523 -4.487)"/>
        <path id="Path_43" data-name="Path 43" class="cls-3" d="M49.618,114.3h-7.3c-5.8,0-10.567-3.136-12.127-7.975L22.257,81.553h-4.22a10.269,10.269,0,0,1-10-8.042A10.269,10.269,0,0,1,0,63.492V41.66A10.253,10.253,0,0,1,8.376,31.6a10.293,10.293,0,0,1,9.7-6.931H38.456a2.977,2.977,0,0,1,0,5.954H18.077a4.307,4.307,0,0,0-4.291,3.969l-.195,2.779H10.265A4.291,4.291,0,0,0,5.954,41.66V63.492a4.3,4.3,0,0,0,4.295,4.3h3.5v3.493a4.3,4.3,0,0,0,4.295,4.307h8.582L35.868,104.5c.913,2.826,3.938,3.842,6.458,3.842h7.292a2.32,2.32,0,0,0,1.953-.794,2.861,2.861,0,0,0,.131-2.6L42.235,75.567H72.621c34.2.024,48.308,13.159,57.644,21.832l.552.516.889.83.064-91.3-.877.794c-10.142,9.527-24.015,22.415-58.16,22.415H47.8a2.977,2.977,0,0,1,0-5.954H72.728c31.811,0,44.692-11.968,54.1-20.709C127.9,3,128.9,2.065,129.912,1.168a4.692,4.692,0,0,1,5.049-.79,4.628,4.628,0,0,1,2.779,4.275L137.648,102a4.561,4.561,0,0,1-7.586,3.414l-.746-.671q-1.25-1.137-2.568-2.382l-.552-.512C117.023,93.307,104.46,81.6,72.609,81.6h-22.2l6.958,21.57a8.754,8.754,0,0,1-.988,7.939A8.289,8.289,0,0,1,49.618,114.3Z" transform="translate(0 0.031)"/>
        <path id="Path_44" data-name="Path 44" class="cls-4" d="M457.4,112.152l-2.858-2.759a56.763,56.763,0,0,0-.349-79.174l2.83-2.779a60.732,60.732,0,0,1,.373,84.712Z" transform="translate(-273.902 -16.536)"/>
        <path id="Path_45" data-name="Path 45" class="cls-5" d="M427.005,119.811l-2.85-2.779a37.853,37.853,0,0,0-.115-52.793l2.838-2.779A41.822,41.822,0,0,1,427.005,119.811Z" transform="translate(-255.72 -37.052)"/>
        <path id="Path_46" data-name="Path 46" class="cls-5" d="M406.7,126.558l-2.83-2.779a15.374,15.374,0,0,0,.1-21.435l2.858-2.755a19.343,19.343,0,0,1-.123,26.992Z" transform="translate(-243.557 -60.046)"/>
      </g>
    </g>
  </g>
</svg>
