<svg xmlns="http://www.w3.org/2000/svg" viewBox="333.792 -0.616 25.52 52.568">
  <defs>
    <style>
      .cls-1 {
        fill: #37404d;
      }

      .cls-2 {
        fill: rgba(85,179,229,0.86);
      }

      .cls-3 {
        fill: #37404e;
      }
    </style>
  </defs>
  <g id="Mic" transform="translate(333.792 -0.616)">
    <g id="Mic-2" data-name="Mic" transform="translate(0 0)">
      <path id="Path_37" data-name="Path 37" class="cls-1" d="M45.574,167.146v2.139A12.766,12.766,0,0,1,35.519,181.3a12.936,12.936,0,0,1-1.559.232v9.372h7.259a1.146,1.146,0,1,1,0,2.292H25.174a1.146,1.146,0,1,1,0-2.292h6.495v-9.366a12.849,12.849,0,0,1-7.606-3.429,1.146,1.146,0,1,1,1.569-1.669,10.649,10.649,0,0,0,1.514,1.181A10.471,10.471,0,0,0,43.282,169.2v-2.054a1.146,1.146,0,1,1,2.292,0Z" transform="translate(-20.054 -140.633)"/>
      <path id="Path_38" data-name="Path 38" class="cls-1" d="M3.553,175.975a1.146,1.146,0,0,1-1.582-.358c-.084-.133-.165-.267-.245-.4A12.836,12.836,0,0,1,0,169.256c0-.176,0-2.116,0-2.139a1.146,1.146,0,0,1,2.292,0v2.057a10.534,10.534,0,0,0,1.41,4.89c.064.11.13.22.2.329A1.148,1.148,0,0,1,3.553,175.975Z" transform="translate(0 -140.608)"/>
      <path id="Path_39" data-name="Path 39" class="cls-1" d="M31.474,36.675A9.485,9.485,0,0,1,22,27.2V9.474a9.474,9.474,0,1,1,18.949,0v3.891a1.146,1.146,0,1,1-2.292,0V9.474a7.182,7.182,0,1,0-14.364,0V27.2a7.182,7.182,0,0,0,14.364,0V16.809a1.146,1.146,0,1,1,2.292,0V27.2A9.485,9.485,0,0,1,31.474,36.675Z" transform="translate(-18.638 0)"/>
      <path id="Path_40" data-name="Path 40" class="cls-2" d="M35.51,143.5H50.486v1.528H35.51" transform="translate(-30.084 -121.571)"/>
      <path id="Path_41" data-name="Path 41" class="cls-3" d="M50.868,143.292H35.51v-.764H50.1v-.764H35.51V141H50.868Z" transform="translate(-30.084 -119.453)"/>
    </g>
  </g>
</svg>
