<svg xmlns="http://www.w3.org/2000/svg" viewBox="201.262 7.452 56.583 35.512">
  <defs>
    <style>
      .cls-1 {
        fill: none;
        stroke: #37404d;
        stroke-linecap: round;
        stroke-miterlimit: 10;
        stroke-width: 15px;
      }

      .cls-2 {
        fill: #37404d;
      }

      .cls-3 {
        fill: rgba(229,85,85,0.86);
      }
    </style>
  </defs>
  <g id="camera_1" transform="translate(201.262 7.452)">
    <g id="Video">
      <path id="Path_31" data-name="Path 31" class="cls-1" d="M167.16,7.5" transform="translate(-148.609 -6.668)"/>
      <path id="Path_32" data-name="Path 32" class="cls-2" d="M223.23,13.351a.832.832,0,0,1-.832-.832v-2c-.671.388-1.346.777-2.016,1.16q-.861.492-1.718.974l-.037.019-.741.366a1.489,1.489,0,0,1-1.506-.257,1.515,1.515,0,0,1-.512-1.21V8.406c0-.647.011-1.316,0-2.236V5.282a3.621,3.621,0,0,0-3.616-3.618h-23.03a.832.832,0,0,1,0-1.665h23.03a5.288,5.288,0,0,1,5.281,5.281v.874c.008.932,0,1.609,0,2.263v2.941l.333-.166q.845-.475,1.692-.959c1.082-.617,2.176-1.245,3.252-1.878l1.252-.731v4.894a.832.832,0,0,1-.832.832Z" transform="translate(-167.483)"/>
      <path id="Path_33" data-name="Path 33" class="cls-1" d="M502.33,112.81" transform="translate(-446.584 -100.291)"/>
      <path id="Path_34" data-name="Path 34" class="cls-2" d="M44.769,35.512H5.281A5.288,5.288,0,0,1,0,30.231V5.281A5.281,5.281,0,0,1,5.281,0H18.551a.832.832,0,1,1,0,1.665H5.281A3.617,3.617,0,0,0,1.665,5.281v24.95a3.621,3.621,0,0,0,3.617,3.617H44.769a3.621,3.621,0,0,0,3.617-3.617V23.385a2.082,2.082,0,0,1,.011-.422,1.135,1.135,0,0,1,.517-.879A1.1,1.1,0,0,1,49.765,22a1.459,1.459,0,0,1,.5.241c.235.17.333.237.4.3.161.111.956.6,4.256,2.461V15.426a.832.832,0,0,1,1.665,0V27.844l-1.24-.7c-3.324-1.864-4.7-2.663-5.289-3.025v6.1a5.29,5.29,0,0,1-5.286,5.292Zm5.9-12.964.014.012Z"/>
      <path id="Path_35" data-name="Path 35" class="cls-3" d="M150.627,97.881a8.4,8.4,0,1,0-1.53-2.45" transform="translate(-132.001 -74.559)"/>
      <path id="Path_36" data-name="Path 36" class="cls-2" d="M150.237,94.515a9.281,9.281,0,0,1-6.908-3.091.832.832,0,0,1,1.241-1.11,7.571,7.571,0,1,0-1.379-2.208.832.832,0,0,1-1.543.626,9.268,9.268,0,1,1,8.59,5.783Z" transform="translate(-125.323 -67.548)"/>
    </g>
  </g>
</svg>
